@startuml

class DataFrameAnalyzer {
    DataFrame source_df
    DataFrame filtered_df
    DataFrame displayed_df
    DataFrame summary_df
    DataFrame summary_categorical_df
    [DataFramePlotManager] plot_manager_list

}
DataFrameAnalyzer o--> DataFrame
DataFrameAnalyzer "0..*" o--> DataFramePlotManager

class DataFramePlotManager {
    DataFrame data_source
    [PlotDescriptor] contained_plots
    DataFrameAnalyzer source_analyzer
}
DataFramePlotManager "0..*" o--> PlotDescriptor
DataFramePlotManager o..> DataFrame
DataFramePlotManager o--> DataFrameAnalyzer

class BasePlotFactory {
    ArrayPlotData plot_data
    BaseXYPlotStyle plot_style
    PlotContextMenuManager context_menu_manager
}
BasePlotFactory o--> BaseXYPlotStyle
BasePlotFactory o--> PlotContextMenuManager

class StdXYPlotFactory {
    OverlayPlotContainer plot
    {BaseXYPlot} renderers
}
BasePlotContainer <|-- OverlayPlotContainer
BasePlotFactory <|-- StdXYPlotFactory
StdXYPlotFactory o--> OverlayPlotContainer

class BaseXYPlotStyle {
    RendererStyleManager renderer_style_manager
    TitleStyle title_style
    PlotContainerStyle container_style
    AxisStyle x_axis_style
    AxisStyle y_axis_style
    AxisStyle second_y_axis_style
}
BaseXYPlotStyle o--> RendererStyleManager
BaseXYPlotStyle o--> AxisStyle
BaseXYPlotStyle o--> TitleStyle

class RendererStyleManager {
    [BaseRendererStyle] renderer_styles
}
RendererStyleManager "0..*" o--> BaseRendererStyle
BaseRendererStyle <|-- BaseXYRendererStyle
BaseXYRendererStyle <|-- ScatterRendererStyle
BaseXYRendererStyle <|-- LineRendererStyle
BaseXYRendererStyle <|-- BarRendererStyle
BaseXYRendererStyle <|-- HeatmapRendererStyle


class PlotDescriptor {
    BasePlotContainer plot
    BasePlotConfigurator plot_config
    BasePlotFactory plot_factory
}
PlotDescriptor o--> BasePlotContainer
PlotDescriptor o--> BasePlotConfigurator
PlotDescriptor o--> BasePlotFactory


class BasePlotConfigurator {
    DataFrame data_source
    DataFrame transformed_data
    BaseXYPlotStyle plot_style
}
BasePlotConfigurator o..> DataFrame
BasePlotConfigurator o--> BaseXYPlotStyle

class BaseSingleXYPlotConfigurator {
    BaseXYPlotStyle plot_style
}
BaseSingleXYPlotConfigurator o--> BaseXYPlotStyle

class BarPlotConfigurator {
    BarPlotStyle plot_style
    DataFrame transformed_data
}
BarPlotConfigurator o..> DataFrame
BarPlotConfigurator o--> BarPlotStyle
BaseColorXYPlotStyle <|-- BarPlotStyle
BaseXYPlotStyle <|-- BaseColorXYPlotStyle

class ScatterPlotConfigurator
BasePlotConfigurator <|-- BaseSinglePlotConfigurator
'BasePlotConfigurator <|-- BaseMultiPlotConfigurator
'BaseSingleXYPlotConfigurator <|-- MultiLinePlotConfigurator
'BaseMultiPlotConfigurator <|-- MultiLinePlotConfigurator
BaseSinglePlotConfigurator <|-- BaseSingleXYPlotConfigurator
BaseSingleXYPlotConfigurator <|-- BarPlotConfigurator
BaseSingleXYPlotConfigurator <|-- ScatterPlotConfigurator

'class DataElement
'DataElement <|-- DataFramePlotManager
'DataElement <|-- DataFrameAnalyzer

@enduml